# Blender v2.79 (sub 0) OBJ File: 'assets.blend'
# www.blender.org
mtllib floor.mtl
o Plane
v -7.562598 -0.141242 8.697838
v 8.707189 -0.141242 8.697838
v -7.562598 -0.141242 -7.571949
v 8.707189 -0.141242 -7.571949
v 8.707189 3.873503 -7.571949
v -7.562598 3.873503 -7.571949
v 8.707189 3.873503 8.697838
v -7.562598 3.873503 8.697838
vt 0.000000 0.000000
vt 1.000000 0.000000
vt 1.000000 1.000000
vt 0.000000 1.000000
vt 1.000000 0.000000
vt 1.000000 1.000000
vt 0.000000 1.000000
vt 0.000000 0.000000
vt 1.000000 0.000000
vt 1.000000 1.000000
vt 0.000000 1.000000
vt 0.000000 0.000000
vt 1.000000 0.000000
vt 1.000000 1.000000
vt 0.000000 1.000000
vt 0.000000 0.000000
vt 1.000000 1.000000
vt 0.000000 1.000000
vt 0.000000 0.000000
vt 1.000000 0.000000
vn 0.0000 1.0000 0.0000
vn 1.0000 0.0000 0.0000
vn 0.0000 0.0000 -1.0000
vn 0.0000 0.0000 1.0000
vn -1.0000 0.0000 0.0000
vn 0.0000 -1.0000 0.0000
usemtl None
s off
f 1/1/1 2/2/1 4/3/1 3/4/1
f 1/1/2 3/5/2 6/6/2 8/7/2
f 2/8/3 1/9/3 8/10/3 7/11/3
f 3/12/4 4/13/4 5/14/4 6/15/4
f 4/16/5 2/2/5 7/17/5 5/18/5
f 7/19/6 8/20/6 6/6/6 5/18/6
